<svg version="1.1" id="Layer_1" xmlns="http://www.w3.org/2000/svg" xmlns:xlink="http://www.w3.org/1999/xlink" x="0px" y="0px"
	 width="100%" viewBox="0 0 1181 433" enable-background="new 0 0 1181 433" xml:space="preserve">
<path fill="#FEFDFD" opacity="1.000000" stroke="none" 
	d="
M1182.000000,304.000000 
	C1182.000000,347.312012 1182.000000,390.623993 1182.000000,434.000000 
	C934.309998,434.000000 686.619995,434.000000 438.591644,433.641663 
	C447.297821,432.030182 452.144989,425.994598 455.014679,418.078369 
	C457.503296,411.213257 459.580841,404.195953 461.734741,397.213440 
	C465.397247,385.340363 468.977020,373.441772 472.613617,361.481232 
	C461.651001,360.342743 461.651001,360.342743 458.725250,366.657349 
	C453.585022,359.253662 447.617706,357.783234 440.153992,362.698914 
	C437.180420,364.657379 434.106445,367.293793 432.527039,370.366333 
	C429.207947,376.823181 426.613556,383.690247 424.192505,390.554932 
	C422.993561,393.954346 422.434601,397.705627 422.289886,401.325806 
	C421.929474,410.342194 427.930756,414.922272 436.575043,412.271057 
	C439.481537,411.379639 442.126495,409.635559 445.992035,407.741760 
	C443.980499,412.597351 442.695648,416.901825 440.498291,420.674896 
	C438.158691,424.692200 434.069916,424.521301 431.374512,420.989777 
	C430.770294,420.198120 429.694550,419.425537 428.747162,419.296631 
	C424.992004,418.785797 421.201599,418.533783 417.523895,418.195007 
	C414.635925,426.149567 415.896118,429.100861 424.000000,434.000000 
	C283.052155,434.000000 142.104294,434.000000 1.078223,434.000000 
	C1.078223,289.772247 1.078223,145.544418 1.078223,1.000000 
	C103.023109,1.000000 205.046539,1.000000 307.511047,1.468168 
	C307.952118,96.118439 307.952118,190.300552 307.952118,284.774658 
	C309.737000,284.889282 311.030090,285.044586 312.323212,285.044922 
	C364.601593,285.059052 416.879974,285.065887 469.158325,285.025543 
	C470.575531,285.024445 471.992310,284.495087 473.849548,284.268188 
	C476.955414,284.309052 479.621002,284.280487 482.286560,284.280457 
	C713.367615,284.278961 944.448730,284.280426 1175.529785,284.268585 
	C1177.686523,284.268463 1179.843262,284.093384 1182.000000,284.000000 
	C1182.000000,287.361664 1182.000000,290.723358 1181.533203,294.588745 
	C882.765564,295.108459 584.464661,295.115936 286.163849,295.235779 
	C282.372101,295.237305 281.111755,293.763153 279.993774,290.524750 
	C247.626755,196.768539 215.145966,103.051590 182.795319,9.289738 
	C181.497330,5.527803 179.747696,4.162989 175.679260,4.208661 
	C155.850494,4.431260 136.017853,4.308172 116.186592,4.308564 
	C104.885803,4.308788 104.878334,4.307231 101.215912,15.016688 
	C69.336998,108.235291 37.459114,201.454254 5.592755,294.677155 
	C4.590666,297.608704 3.716676,300.584045 2.725003,303.722412 
	C3.913022,303.982178 4.546434,304.240936 5.180225,304.241882 
	C26.844431,304.273621 48.509140,304.214264 70.172401,304.365234 
	C73.337135,304.387268 74.089981,302.691406 74.763107,300.311920 
	C79.518127,283.502899 84.382774,266.724335 89.015831,249.881943 
	C89.961021,246.445938 91.432549,245.138519 95.172806,245.156921 
	C127.002037,245.313721 158.832703,245.311020 190.661972,245.155716 
	C194.384613,245.137558 195.927917,246.403076 196.878220,249.862259 
	C201.196793,265.582275 205.755051,281.236328 210.196228,296.922852 
	C212.415146,304.760193 212.385590,304.834442 220.660660,304.788422 
	C244.981277,304.653137 269.301544,304.315491 293.622009,304.312683 
	C587.424683,304.278503 881.227356,304.291229 1175.030029,304.278534 
	C1177.353394,304.278442 1179.676636,304.096832 1182.000000,304.000000 
M544.087341,406.696106 
	C552.630249,391.720184 561.173218,376.744293 570.095642,361.103180 
	C567.125549,361.103180 564.984802,361.343597 562.919128,361.052002 
	C558.896057,360.484070 556.678711,362.050598 554.954773,365.754395 
	C551.099182,374.037994 546.786133,382.109528 542.612122,390.243164 
	C541.915771,391.600098 540.981323,392.834900 540.156860,394.126099 
	C539.881653,394.008698 539.606506,393.891296 539.331299,393.773895 
	C540.700256,383.079437 542.069275,372.385010 543.515015,361.090637 
	C540.821106,361.090637 538.644165,361.387665 536.580627,361.030151 
	C531.975098,360.232208 529.789185,362.387970 528.012512,366.394318 
	C524.576660,374.142029 520.663940,381.680115 516.868713,389.264954 
	C516.146606,390.708221 515.053833,391.966064 514.132080,393.309448 
	C513.853455,393.145630 513.574768,392.981842 513.296082,392.818054 
	C514.448425,382.397583 515.600830,371.977112 516.768555,361.417419 
	C512.312805,361.417419 508.413269,361.417419 504.255310,361.417419 
	C503.434631,378.741699 502.628479,395.758911 501.811340,413.008057 
	C503.713867,413.008057 504.892761,412.843536 506.010498,413.035248 
	C512.408630,414.132660 516.217590,411.951904 518.734192,405.530518 
	C521.901306,397.449188 526.393982,389.887329 530.314697,382.101288 
	C530.603394,382.205597 530.892090,382.309906 531.180786,382.414215 
	C529.994995,392.442780 528.809143,402.471375 527.552673,413.097595 
	C533.627441,412.089264 540.805664,416.203979 544.087341,406.696106 
M709.221313,402.850159 
	C710.964355,397.328583 712.707397,391.807037 714.567139,385.915833 
	C717.131470,385.915833 719.609253,385.994537 722.080627,385.903168 
	C739.615173,385.255005 751.710449,373.715210 753.218201,356.238312 
	C753.990784,347.283325 750.237671,342.531677 741.314575,341.972107 
	C733.674744,341.493011 725.992310,341.724243 718.343201,341.347900 
	C715.403137,341.203217 714.303711,342.306335 713.512634,344.970703 
	C710.202881,356.117798 706.653870,367.193634 703.233398,378.308167 
	C699.722473,389.716644 696.259216,401.139740 692.706848,412.780029 
	C694.134827,412.876160 695.117737,412.987823 696.101990,413.001617 
	C706.065369,413.141510 706.065430,413.136963 709.221313,402.850159 
M194.759430,358.353241 
	C196.406448,356.735748 197.825256,354.746155 199.742935,353.569946 
	C205.705933,349.912598 210.284210,352.590851 210.307358,359.526581 
	C210.312119,360.956604 210.308044,362.386627 210.308044,363.971741 
	C214.232819,363.210754 217.857330,362.655914 221.389053,361.742432 
	C222.615677,361.425201 224.269028,360.433929 224.610779,359.386230 
	C227.396149,350.847687 222.038452,342.281464 213.131668,340.675720 
	C200.868439,338.464935 187.761398,344.326019 181.660614,356.958832 
	C176.587585,367.463531 173.429077,378.951691 170.090714,390.202423 
	C168.962799,394.003662 169.386337,398.484955 169.978287,402.526947 
	C170.944382,409.123810 175.081009,412.817902 181.499634,413.891113 
	C195.943634,416.306244 211.276993,406.173248 215.031693,391.482513 
	C211.361557,390.186127 207.667862,388.881378 204.473206,387.752930 
	C201.465805,391.985291 199.329208,396.366699 195.933807,399.281921 
	C193.711746,401.189697 189.112030,402.314880 186.614243,401.282257 
	C184.638351,400.465363 182.728668,395.417694 183.400101,392.962799 
	C186.539688,381.483978 190.584030,370.252655 194.759430,358.353241 
M643.029602,375.613739 
	C643.672119,374.850800 644.171265,373.696960 644.984253,373.398895 
	C647.331360,372.538330 649.804810,372.022522 652.228699,371.371338 
	C652.356995,373.574890 652.679382,375.790314 652.545044,377.977753 
	C652.456238,379.423920 651.699280,380.825958 651.263184,382.254425 
	C648.174255,392.373505 645.090942,402.494354 641.929504,412.865295 
	C646.480713,412.865295 650.611755,412.865295 655.231995,412.865295 
	C659.212830,399.201141 663.660034,385.622833 667.026428,371.781677 
	C669.234802,362.701782 663.786743,358.107178 654.699707,360.588043 
	C651.389526,361.491791 648.358521,363.418060 644.773682,365.074890 
	C647.168030,357.169739 649.455444,349.617798 651.936646,341.425995 
	C647.975647,341.425995 644.517395,341.221008 641.109802,341.546600 
	C640.040222,341.648804 638.533875,342.998657 638.195740,344.080170 
	C631.070068,366.873474 624.083069,389.710236 616.982910,412.818481 
	C621.453674,412.818481 625.569458,412.818481 629.891174,412.818481 
	C630.597961,410.632660 631.263062,408.413330 632.030701,406.230011 
	C635.546814,396.228912 639.091553,386.237823 643.029602,375.613739 
M764.575195,363.946716 
	C761.436279,367.151855 758.297363,370.356964 754.688660,374.041779 
	C761.244995,376.044128 766.450439,378.573334 770.362915,372.129700 
	C770.898560,371.247498 772.675720,370.939056 773.940063,370.716003 
	C776.774475,370.215973 780.017334,369.730652 780.738281,373.581879 
	C781.359131,376.898407 780.424622,379.718628 776.369995,380.643616 
	C770.866516,381.899109 765.355347,383.238373 760.002686,385.010468 
	C752.099670,387.626892 747.356323,393.300720 745.598022,401.438354 
	C744.141907,408.177704 747.930542,413.395691 754.781860,414.023529 
	C760.504944,414.547974 765.619080,412.895508 770.222107,409.510620 
	C770.583252,409.244995 771.108093,409.202057 771.782410,408.982117 
	C771.979553,410.331360 772.156982,411.545410 772.337646,412.781494 
	C776.636292,412.781494 780.569275,412.781494 783.708618,412.781494 
	C785.188599,406.128876 786.389343,399.829193 788.018738,393.642426 
	C789.921570,386.417358 792.421265,379.346924 794.245056,372.104401 
	C795.783997,365.993164 793.582947,362.563446 787.462341,360.963745 
	C779.751465,358.948425 772.286682,359.827606 764.575195,363.946716 
M240.585541,362.931427 
	C235.574081,365.430359 232.009964,369.198700 229.687119,374.487793 
	C235.430939,375.824005 240.814453,378.570801 244.473160,371.986450 
	C244.619125,371.723755 244.992035,371.432709 245.269760,371.421692 
	C248.003738,371.313263 250.814407,370.894653 253.428635,371.425018 
	C254.178650,371.577118 254.724670,374.516541 254.730713,376.180237 
	C254.743042,379.567749 251.953461,380.252594 249.358826,380.935547 
	C244.388031,382.244019 239.341187,383.312836 234.455475,384.884033 
	C226.359863,387.487579 221.398285,393.107544 219.669815,401.482880 
	C218.228470,408.466827 222.225128,414.281738 229.337540,413.837280 
	C234.381195,413.522064 239.288712,411.024811 244.256180,409.498901 
	C244.708618,409.359924 245.155197,409.201904 245.836899,408.975525 
	C246.020203,410.335480 246.183533,411.547333 246.331329,412.643860 
	C250.773727,412.643860 254.827499,412.643860 258.091278,412.643860 
	C259.031372,407.452393 259.575562,402.673676 260.798584,398.075531 
	C263.099854,389.423676 265.990845,380.927795 268.256836,372.267670 
	C269.908783,365.954407 267.626892,362.523499 261.235809,360.890045 
	C254.412857,359.146210 247.730118,359.784241 240.585541,362.931427 
M385.035767,403.627808 
	C385.525604,402.040741 385.948181,400.429169 386.516693,398.870819 
	C389.296722,391.250946 391.863922,383.538330 395.031616,376.081665 
	C396.516876,372.585419 399.926361,369.669708 403.828766,371.383270 
	C407.902679,373.172241 405.047729,376.971619 404.263580,379.698059 
	C401.101227,390.693542 397.662201,401.609467 394.188538,413.003448 
	C398.017639,413.003448 401.500305,413.197662 404.938049,412.889862 
	C406.025146,412.792542 407.597717,411.541931 407.921936,410.499878 
	C411.864258,397.828674 415.970123,385.189911 419.298279,372.352142 
	C421.780701,362.776550 416.138885,357.758392 406.669708,360.774536 
	C402.905640,361.973480 399.535522,364.409271 395.923462,366.315002 
	C396.190369,364.761932 396.483429,363.056854 396.776398,361.352295 
	C392.722595,361.352295 388.958557,361.352295 385.058228,361.352295 
	C379.768219,378.564758 374.536957,395.586090 369.219330,412.888458 
	C373.841278,412.888458 377.811554,412.888458 382.054596,412.888458 
	C383.001038,410.041046 383.936707,407.226105 385.035767,403.627808 
M996.268860,381.679504 
	C993.137939,391.974701 990.007080,402.269897 986.792969,412.838562 
	C991.325623,412.838562 995.449768,412.838562 999.590149,412.838562 
	C999.814514,412.320923 1000.050110,411.890869 1000.192749,411.431915 
	C1003.296570,401.444702 1006.460022,391.475098 1009.449585,381.453674 
	C1010.583740,377.651520 1011.720154,373.771698 1012.136658,369.850891 
	C1012.885986,362.797791 1009.521973,359.318817 1002.520813,360.170959 
	C999.206665,360.574341 996.033630,362.383575 992.880615,363.749695 
	C991.488220,364.352997 990.304749,365.438507 988.606018,366.590057 
	C988.859619,364.405243 989.029358,362.942841 989.242859,361.103149 
	C987.091797,361.103149 985.076782,361.342194 983.140076,361.054169 
	C978.913635,360.425537 977.073914,362.143890 975.955688,366.261444 
	C973.303223,376.028381 970.077698,385.639160 967.114014,395.322296 
	C965.351135,401.081940 963.645447,406.859100 961.838623,412.879578 
	C966.458313,412.879578 970.429382,412.879578 974.587830,412.879578 
	C977.797607,402.885803 980.738098,392.874542 984.295044,383.087219 
	C985.667908,379.309387 988.070190,375.711914 990.748718,372.693726 
	C991.887207,371.410858 994.939575,371.826569 997.122192,371.470337 
	C997.325012,373.349365 997.715576,375.233398 997.665710,377.105682 
	C997.631470,378.391022 996.985291,379.660065 996.268860,381.679504 
M943.045715,360.282471 
	C939.264587,361.881531 934.917419,362.760651 931.803772,365.208649 
	C920.450012,374.135345 915.929871,386.694153 915.588501,400.632477 
	C915.372925,409.436890 920.640442,413.887207 929.430664,414.097992 
	C936.825378,414.275299 943.066223,411.584167 948.238892,406.449982 
	C955.987183,398.759247 959.729614,389.077454 961.120483,378.509155 
	C962.829041,365.527496 956.968994,359.491058 943.045715,360.282471 
M839.776978,399.166779 
	C838.936340,406.088165 840.775513,410.231384 845.734680,412.587646 
	C857.115967,417.995331 872.473145,411.960022 877.137024,400.246552 
	C879.781433,393.605316 878.684448,389.253937 873.088074,384.865814 
	C869.949524,382.404877 866.405823,380.385284 863.613037,377.597412 
	C862.559998,376.546143 862.285217,373.263794 863.145935,372.128174 
	C864.137817,370.819702 867.011841,369.945374 868.630432,370.409668 
	C869.994934,370.801147 870.732727,373.377380 871.943970,375.297333 
	C875.741333,374.703796 879.773132,374.073608 883.696472,373.460358 
	C884.134277,366.417206 882.417419,363.031738 877.738281,361.160492 
	C867.026367,356.876648 853.786743,362.895203 849.841003,373.842285 
	C847.709290,379.756531 848.663635,384.121918 853.367188,388.233185 
	C856.242432,390.746460 859.601807,392.722626 862.364685,395.340057 
	C863.585327,396.496490 864.907898,399.264832 864.346619,400.209412 
	C863.314636,401.946198 861.030212,403.625153 859.063965,403.907288 
	C857.436218,404.140869 855.198792,402.652374 853.828979,401.314850 
	C852.830688,400.340118 852.805359,398.368958 852.265015,396.571930 
	C848.139587,397.247253 844.215149,397.889709 839.776978,399.166779 
M304.967773,403.346375 
	C309.862823,393.510376 308.793854,389.268250 299.979156,383.056580 
	C297.400452,381.239380 294.635651,379.519409 292.581757,377.200714 
	C291.668365,376.169586 291.560211,373.057037 292.418182,372.153076 
	C293.635742,370.870239 296.307648,369.942688 297.934479,370.393219 
	C299.268463,370.762573 299.984100,373.365021 301.153107,375.269745 
	C304.831909,374.734131 308.742310,374.164825 312.556000,373.609589 
	C313.753937,366.948730 311.989685,363.121185 307.002014,361.140686 
	C295.921539,356.740936 282.258942,363.408569 278.803864,374.812988 
	C277.241943,379.968597 278.197021,384.407837 282.300262,387.914337 
	C285.329803,390.503235 288.776703,392.624695 291.660828,395.352814 
	C292.882294,396.508240 294.177979,399.311218 293.606079,400.260315 
	C292.564606,401.988647 290.254852,403.641907 288.283905,403.906128 
	C286.664062,404.123260 284.463135,402.593018 283.095795,401.250549 
	C282.085022,400.258179 282.000916,398.321930 281.444061,396.623444 
	C277.149750,397.285645 273.105103,397.909363 269.183105,398.514160 
	C268.253754,407.762634 271.098206,412.598694 278.666443,413.700745 
	C288.939575,415.196655 298.326752,413.541992 304.967773,403.346375 
M839.036987,368.878418 
	C838.552673,364.784790 836.167725,362.295746 832.380737,360.985840 
	C821.967529,357.383911 809.502869,362.916504 805.315063,373.001221 
	C802.790161,379.081360 803.735596,383.917999 808.690247,388.314453 
	C811.542603,390.845490 814.924011,392.795898 817.673279,395.420380 
	C818.876770,396.569244 820.069031,399.211731 819.528564,400.352600 
	C818.749512,401.996979 816.487366,403.645203 814.670959,403.887207 
	C812.951965,404.116302 810.623535,402.923035 809.251343,401.626801 
	C808.114746,400.553070 807.980591,398.418152 807.367554,396.653442 
	C803.214294,397.267517 799.292542,397.847321 795.475220,398.411713 
	C793.932373,405.485718 795.754395,410.107513 800.880066,412.559570 
	C811.255127,417.522888 826.307190,412.432526 831.556213,402.185394 
	C835.560974,394.367340 834.354126,389.254150 827.281677,384.011414 
	C824.344971,381.834442 821.207703,379.859100 818.607849,377.332825 
	C817.662659,376.414368 817.238342,373.489990 817.949768,372.664917 
	C819.160034,371.261108 821.655823,369.864532 823.240967,370.202515 
	C824.749451,370.524200 825.783936,373.068756 827.465637,375.189331 
	C829.626648,374.885620 832.553711,374.222504 835.498901,374.128510 
	C838.673889,374.027222 839.616943,372.593140 839.036987,368.878418 
M616.166260,346.793976 
	C613.074585,348.809937 609.334412,350.282745 607.067566,352.989502 
	C604.639648,355.888580 606.032104,361.721252 600.055481,362.169128 
	C599.707092,362.195282 599.336914,363.236298 599.148193,363.857117 
	C598.386292,366.363861 597.691528,368.891052 596.914246,371.612793 
	C598.337769,371.894379 599.515320,372.127319 600.778259,372.377167 
	C599.959229,375.087036 599.242493,377.469757 598.519043,379.850403 
	C596.154236,387.631622 593.670105,395.379089 591.460815,403.204193 
	C589.920776,408.659149 591.378418,411.927704 595.558044,413.524200 
	C604.351318,416.883026 611.055542,412.702881 611.840210,403.372192 
	C604.396973,403.084015 604.384338,403.080261 606.596436,395.648712 
	C608.112976,390.553558 609.900330,385.526245 611.149109,380.367554 
	C612.542175,374.612579 614.164368,369.587646 621.778198,372.172272 
	C622.923645,368.388245 623.905396,365.144653 624.923584,361.780945 
	C622.071167,361.523315 619.837463,361.321564 617.256958,361.088501 
	C618.229370,357.920319 619.076965,355.237366 619.873962,352.539490 
	C620.657166,349.888550 621.389099,347.222473 622.341797,343.863983 
	C620.010803,344.938171 618.409668,345.676025 616.166260,346.793976 
M331.746857,392.355286 
	C336.810394,385.854248 330.542908,371.824005 345.390411,371.815247 
	C345.529816,371.815186 345.669128,371.681152 346.112061,371.453888 
	C347.033722,368.420319 348.023651,365.161926 349.050293,361.782745 
	C346.271576,361.535889 344.040344,361.337646 341.479828,361.110168 
	C343.141663,355.328766 344.665588,350.027161 346.460693,343.782135 
	C341.718018,346.097870 337.895081,347.724152 334.343262,349.811707 
	C332.827209,350.702759 331.638672,352.418640 330.721283,354.002899 
	C329.008148,356.961395 330.099213,362.051941 324.369812,361.913574 
	C323.969086,361.903931 323.422180,363.553650 323.125641,364.489532 
	C322.392059,366.805023 321.764313,369.154083 321.069122,371.576385 
	C322.529480,371.920959 323.682648,372.193054 324.855286,372.469727 
	C321.634827,383.159821 318.493744,393.468994 315.434265,403.802338 
	C314.279022,407.704071 314.739624,411.957794 318.940460,412.886108 
	C323.422516,413.876556 328.644257,413.863647 332.917511,412.427460 
	C334.935059,411.749390 335.491882,406.725067 336.822266,403.390106 
	C328.704468,403.127930 328.603058,402.984161 330.622711,395.992645 
	C330.899017,395.036224 331.157837,394.074829 331.746857,392.355286 
M576.092834,409.786346 
	C581.059570,393.691498 586.026306,377.596649 591.116516,361.101746 
	C587.223145,361.101746 583.886841,360.869904 580.613037,361.220886 
	C579.379639,361.353149 577.595764,362.614990 577.240723,363.735260 
	C572.092651,379.977966 567.145203,396.284241 562.016357,413.009735 
	C565.874329,413.009735 569.352783,413.200958 572.787842,412.898804 
	C573.887146,412.802063 574.871521,411.399414 576.092834,409.786346 
M912.525940,366.108551 
	C912.950745,364.547607 913.375488,362.986664 913.889099,361.099213 
	C910.194824,361.099213 906.855347,360.867096 903.578369,361.218323 
	C902.341797,361.350861 900.552551,362.611420 900.196838,363.732635 
	C895.042725,379.978607 890.089600,396.288391 885.010193,412.837952 
	C889.474121,412.837952 893.597900,412.837952 898.140564,412.837952 
	C902.818420,397.573212 907.524475,382.216370 912.525940,366.108551 
M347.563721,413.005951 
	C350.195862,413.005951 352.828003,413.005951 355.507599,413.005951 
	C360.852081,395.603363 366.078888,378.583832 371.380188,361.321777 
	C366.592804,361.321777 362.484222,361.321777 358.268890,361.321777 
	C352.987915,378.516388 347.760956,395.535065 342.395172,413.005829 
	C344.331635,413.005829 345.482483,413.005829 347.563721,413.005951 
M174.271576,351.836487 
	C175.272552,348.569794 176.273544,345.303070 177.476196,341.378204 
	C173.483322,341.378204 170.195862,341.524506 166.928375,341.331787 
	C164.325668,341.178284 162.984253,342.097198 162.441284,344.680908 
	C160.924515,351.898407 159.264984,359.085907 157.648788,366.343689 
	C166.801926,367.704956 166.810883,367.709320 170.236282,360.672729 
	C171.541382,357.991699 172.794968,355.285583 174.271576,351.836487 
M1057.996094,346.463806 
	C1058.364380,344.916107 1058.732544,343.368408 1059.200684,341.401031 
	C1055.193604,341.401031 1051.699707,341.184509 1048.258667,341.516235 
	C1047.022705,341.635406 1045.152832,342.874146 1044.869751,343.944977 
	C1042.907349,351.365295 1041.287109,358.876099 1039.530518,366.472504 
	C1048.879517,367.511749 1048.971924,367.554840 1052.247681,360.530823 
	C1054.273560,356.186890 1055.966431,351.687775 1057.996094,346.463806 
M1032.016602,341.410248 
	C1030.732056,342.125793 1028.562134,342.609039 1028.303711,343.593811 
	C1026.317993,351.162506 1024.703125,358.828552 1022.973206,366.464417 
	C1023.467957,366.866547 1023.962646,367.268707 1024.457397,367.670837 
	C1027.401001,366.887360 1031.970459,367.010010 1033.001221,365.160522 
	C1037.043091,357.907593 1039.968872,350.032623 1043.739136,341.404968 
	C1039.105957,341.404968 1035.998779,341.404968 1032.016602,341.410248 
M142.258957,360.561371 
	C142.085052,362.629211 141.911163,364.697052 141.660797,367.674500 
	C145.371017,366.891510 149.950882,367.202057 150.881546,365.507935 
	C154.954086,358.094635 157.968842,350.100281 161.511673,341.986359 
	C147.390259,340.108368 145.144669,341.746948 143.104874,354.300903 
	C142.812332,356.101318 142.612000,357.916748 142.258957,360.561371 
M903.546753,352.811890 
	C912.702332,357.434692 917.718079,353.984344 919.538513,341.811157 
	C907.248352,340.097992 907.248291,340.097961 903.868408,351.547638 
	C903.821350,351.707001 903.791443,351.871399 903.546753,352.811890 
M590.141113,353.975189 
	C591.385071,353.451294 593.388428,353.229706 593.738708,352.349976 
	C595.098511,348.934204 595.932861,345.309265 597.043152,341.485474 
	C592.402649,341.485474 588.435669,341.485474 584.056824,341.485474 
	C582.838501,345.467163 581.606445,349.493927 580.235046,353.975891 
	C583.646790,353.975891 586.451538,353.975891 590.141113,353.975189 
M370.560852,341.371368 
	C368.579407,341.371368 366.597931,341.371368 364.431122,341.371368 
	C363.144806,345.589203 361.947327,349.515686 360.651001,353.766357 
	C365.252411,353.766357 369.366486,353.766357 373.768311,353.766357 
	C374.948486,349.840363 376.119720,345.944092 377.494904,341.369415 
	C375.019287,341.369415 373.238281,341.369415 370.560852,341.371368 
z"/>
<path fill="#FFFDFC" opacity="1.000000" stroke="none" 
	d="
M1182.000000,265.000000 
	C1182.000000,268.030121 1182.000000,271.060272 1181.533691,274.596497 
	C946.604187,275.111694 712.141113,275.121490 477.678070,275.113586 
	C476.255280,275.113556 474.832489,274.866852 472.980225,274.695648 
	C472.980225,263.010223 472.980225,251.749252 472.980225,240.169647 
	C470.734863,240.070114 468.945984,239.922379 467.157013,239.921707 
	C434.162231,239.909302 401.167389,239.928940 368.172699,239.875229 
	C366.441956,239.872406 364.712189,239.278366 363.045715,238.498688 
	C363.116486,178.486160 363.134552,118.934555 363.124207,59.382938 
	C363.120819,39.921951 363.043518,20.460979 363.000000,1.000000 
	C635.880920,1.000000 908.761780,1.000000 1182.000000,1.000000 
	C1182.000000,62.020428 1182.000000,123.041557 1181.534180,184.587509 
	C1167.828857,185.112335 1154.589355,185.112335 1140.765381,185.112335 
	C1140.765381,127.894402 1140.765381,71.522278 1140.765381,15.193468 
	C1126.567017,15.193468 1112.973145,15.193468 1098.819824,15.193468 
	C1098.819824,52.375282 1098.819824,89.229134 1098.819824,127.558723 
	C1097.093872,125.199760 1096.169800,124.107567 1095.430908,122.901886 
	C1074.723267,89.111015 1053.937378,55.367191 1033.452271,21.441797 
	C1030.558350,16.648941 1027.613403,13.969201 1021.764465,14.776747 
	C1018.003967,15.295949 1014.113586,14.874716 1010.281433,14.874755 
	C1001.331787,14.874847 992.382141,14.874786 983.189575,14.874786 
	C983.189575,75.146187 983.189575,134.831482 983.189575,194.678497 
	C996.948975,194.678497 1010.350342,194.678497 1024.257324,194.678497 
	C1023.508423,155.875870 1022.766052,117.413658 1022.023682,78.951447 
	C1023.988098,80.289902 1025.012329,81.776375 1025.976318,83.300842 
	C1048.582642,119.050758 1071.239014,154.769287 1093.692993,190.614731 
	C1095.863159,194.079163 1098.228149,195.137939 1102.117065,195.080368 
	C1127.919678,194.698380 1153.725464,194.528671 1179.530029,194.274780 
	C1180.354126,194.266693 1181.176758,194.095291 1182.000000,194.000000 
	C1182.000000,199.021912 1182.000000,204.043823 1181.545654,209.661896 
	C1098.432007,210.275574 1015.772766,210.294403 933.113525,210.292694 
	C932.258911,210.292679 931.404297,210.022324 929.726013,209.739227 
	C947.516541,197.216263 956.292297,180.052017 960.303345,160.179474 
	C961.812500,152.702805 962.685364,145.051727 963.235474,137.435898 
	C965.057800,112.207489 964.221436,87.096886 956.879028,62.700348 
	C950.145020,40.325657 937.311157,23.129906 913.886230,15.831641 
	C902.925537,12.416733 891.695984,11.391883 880.320923,12.173559 
	C851.711121,14.139599 831.506653,27.906717 820.705994,54.876316 
	C814.161926,71.217178 812.000000,88.341881 811.509949,105.714767 
	C810.859619,128.771576 811.827087,151.745895 819.836487,173.709000 
	C829.284241,199.616348 847.709534,220.332855 883.053162,220.135117 
	C894.216064,220.072662 905.378174,219.789948 916.540771,219.785736 
	C1003.033997,219.753052 1089.527222,219.762299 1176.020386,219.771255 
	C1178.013550,219.771469 1180.006836,219.920410 1182.000000,220.000000 
	C1182.000000,224.689255 1182.000000,229.378510 1181.533691,234.585968 
	C1058.935791,235.104721 936.804077,235.064072 814.672729,235.247971 
	C809.485840,235.255798 807.170044,233.649277 805.089111,229.063171 
	C795.880005,208.767365 786.565674,188.505035 776.638123,168.554688 
	C770.505920,156.231415 763.563354,144.171143 749.012268,138.290955 
	C752.241577,136.956009 754.693054,135.987076 757.109131,134.936676 
	C774.212280,127.501144 786.622437,115.403419 791.889038,97.336662 
	C797.913147,76.671547 797.124451,56.102741 787.162659,36.627930 
	C779.389526,21.431862 767.353516,11.214442 750.066162,8.406219 
	C742.693176,7.208533 735.211060,6.142585 727.764282,6.038781 
	C703.608887,5.702067 679.446899,5.833646 655.287415,5.795572 
	C648.340881,5.784625 648.324890,5.801178 648.324341,12.888524 
	C648.318604,88.367172 648.316284,163.845825 648.328491,239.324478 
	C648.328796,241.095230 648.507935,242.865967 648.603455,244.632355 
	C662.405518,244.632355 675.650269,244.632355 689.584534,244.632355 
	C689.584534,211.367584 689.584534,178.468399 689.584534,145.455933 
	C694.083374,145.455933 697.892334,145.345612 701.692993,145.476852 
	C712.580139,145.852829 720.070740,151.409943 724.960083,160.902710 
	C726.789001,164.453690 728.897766,167.865173 730.632996,171.459015 
	C741.708191,194.396378 752.794067,217.329422 763.660278,240.365875 
	C765.329895,243.905502 767.268005,245.185135 771.208862,245.088715 
	C789.345886,244.645020 807.490906,244.345886 825.633301,244.336517 
	C942.266968,244.276291 1058.900635,244.307388 1175.534302,244.293015 
	C1177.689575,244.292755 1179.844727,244.101913 1182.000000,244.000000 
	C1182.000000,247.361282 1182.000000,250.722580 1181.532837,254.582230 
	C1043.195312,255.083954 905.324890,255.086014 767.454529,255.102493 
	C765.298950,255.102753 763.143433,255.280487 760.580078,255.282562 
	C758.786072,255.251480 757.399841,255.313217 755.555054,255.267181 
	C694.550049,255.142136 634.003662,255.123810 573.457214,255.118576 
	C572.633850,255.118515 571.810547,255.283676 570.596558,255.275360 
	C569.141602,255.242386 568.077271,255.305771 566.621460,255.270309 
	C565.155090,255.109116 564.080139,255.046768 562.944458,254.739426 
	C562.811218,254.342545 562.738708,254.190659 562.758301,253.697235 
	C562.794250,252.891769 562.738220,252.427841 562.769287,251.559052 
	C562.804626,249.780243 562.752869,248.406281 562.799438,246.632553 
	C562.827454,245.144318 562.757202,244.055847 562.770386,242.508041 
	C562.870239,178.538208 562.887512,115.027710 562.895264,51.517223 
	C562.895386,50.690304 562.774963,49.863373 562.810730,48.704437 
	C562.877747,47.914177 562.844849,47.455929 563.000244,46.819553 
	C563.457092,46.424446 563.725586,46.207466 564.458862,46.062057 
	C583.518066,46.133633 602.112549,46.133633 620.848450,46.133633 
	C620.848450,32.388714 620.848450,19.330742 620.848450,5.850564 
	C566.096008,5.850564 511.707306,5.850564 457.230560,5.850564 
	C457.230560,19.491463 457.230560,32.686840 457.230560,46.320900 
	C476.640228,46.320900 495.575348,46.320900 515.125793,46.320900 
	C515.125793,48.867199 515.125793,50.985584 515.125793,53.103966 
	C515.125854,119.589668 515.122986,186.075378 515.139587,252.561081 
	C515.140137,254.716125 515.341553,256.871124 515.363342,259.346130 
	C515.335693,260.100098 515.393982,260.534058 515.332275,261.377991 
	C514.590027,265.772919 517.471985,265.037445 519.679199,265.023438 
	C536.336182,264.917938 552.992859,264.658661 569.649658,264.656555 
	C771.781311,264.630981 973.913025,264.640381 1176.044678,264.657318 
	C1178.029785,264.657471 1180.014893,264.880859 1182.000000,265.000000 
z"/>
<path fill="#E96C4A" opacity="1.000000" stroke="none" 
	d="
M1182.000000,303.550018 
	C1179.676636,304.096832 1177.353394,304.278442 1175.030029,304.278534 
	C881.227356,304.291229 587.424683,304.278503 293.622009,304.312683 
	C269.301544,304.315491 244.981277,304.653137 220.660660,304.788422 
	C212.385590,304.834442 212.415146,304.760193 210.196228,296.922852 
	C205.755051,281.236328 201.196793,265.582275 196.878220,249.862259 
	C195.927917,246.403076 194.384613,245.137558 190.661972,245.155716 
	C158.832703,245.311020 127.002037,245.313721 95.172806,245.156921 
	C91.432549,245.138519 89.961021,246.445938 89.015831,249.881943 
	C84.382774,266.724335 79.518127,283.502899 74.763107,300.311920 
	C74.089981,302.691406 73.337135,304.387268 70.172401,304.365234 
	C48.509140,304.214264 26.844431,304.273621 5.180225,304.241882 
	C4.546434,304.240936 3.913022,303.982178 2.725003,303.722412 
	C3.716676,300.584045 4.590666,297.608704 5.592755,294.677155 
	C37.459114,201.454254 69.336998,108.235291 101.215912,15.016688 
	C104.878334,4.307231 104.885803,4.308788 116.186592,4.308564 
	C136.017853,4.308172 155.850494,4.431260 175.679260,4.208661 
	C179.747696,4.162989 181.497330,5.527803 182.795319,9.289738 
	C215.145966,103.051590 247.626755,196.768539 279.993774,290.524750 
	C281.111755,293.763153 282.372101,295.237305 286.163849,295.235779 
	C584.464661,295.115936 882.765564,295.108459 1181.533203,295.046234 
	C1182.000000,297.700012 1182.000000,300.400024 1182.000000,303.550018 
M133.055740,96.587006 
	C123.360123,129.898605 113.664520,163.210220 103.839020,196.968109 
	C130.223480,196.968109 155.815750,196.968109 182.142181,196.968109 
	C169.498276,152.380890 156.991074,108.275650 144.483856,64.170410 
	C143.799042,64.245392 143.114227,64.320374 142.429413,64.395348 
	C139.360443,74.862679 136.291473,85.330009 133.055740,96.587006 
z"/>
<path fill="#E96C4A" opacity="1.000000" stroke="none" 
	d="
M1182.000000,243.550018 
	C1179.844727,244.101913 1177.689575,244.292755 1175.534302,244.293015 
	C1058.900635,244.307388 942.266968,244.276291 825.633301,244.336517 
	C807.490906,244.345886 789.345886,244.645020 771.208862,245.088715 
	C767.268005,245.185135 765.329895,243.905502 763.660278,240.365875 
	C752.794067,217.329422 741.708191,194.396378 730.632996,171.459015 
	C728.897766,167.865173 726.789001,164.453690 724.960083,160.902710 
	C720.070740,151.409943 712.580139,145.852829 701.692993,145.476852 
	C697.892334,145.345612 694.083374,145.455933 689.584534,145.455933 
	C689.584534,178.468399 689.584534,211.367584 689.584534,244.632355 
	C675.650269,244.632355 662.405518,244.632355 648.603455,244.632355 
	C648.507935,242.865967 648.328796,241.095230 648.328491,239.324478 
	C648.316284,163.845825 648.318604,88.367172 648.324341,12.888524 
	C648.324890,5.801178 648.340881,5.784625 655.287415,5.795572 
	C679.446899,5.833646 703.608887,5.702067 727.764282,6.038781 
	C735.211060,6.142585 742.693176,7.208533 750.066162,8.406219 
	C767.353516,11.214442 779.389526,21.431862 787.162659,36.627930 
	C797.124451,56.102741 797.913147,76.671547 791.889038,97.336662 
	C786.622437,115.403419 774.212280,127.501144 757.109131,134.936676 
	C754.693054,135.987076 752.241577,136.956009 749.012268,138.290955 
	C763.563354,144.171143 770.505920,156.231415 776.638123,168.554688 
	C786.565674,188.505035 795.880005,208.767365 805.089111,229.063171 
	C807.170044,233.649277 809.485840,235.255798 814.672729,235.247971 
	C936.804077,235.064072 1058.935791,235.104721 1181.533691,235.052094 
	C1182.000000,237.700012 1182.000000,240.400024 1182.000000,243.550018 
M694.682861,109.012489 
	C702.667725,108.952141 710.668396,109.192551 718.634460,108.774551 
	C741.711487,107.563675 752.351013,98.278831 753.408142,77.436134 
	C754.240173,61.032604 748.934021,49.587772 730.635986,46.538261 
	C717.335327,44.321617 703.570801,44.888214 690.063843,44.216385 
	C689.656555,45.921402 689.377258,46.547142 689.376282,47.173328 
	C689.344604,66.638641 689.410339,86.104515 689.268799,105.568901 
	C689.242493,109.194588 691.267151,109.142815 694.682861,109.012489 
z"/>
<path fill="#E86C4A" opacity="1.000000" stroke="none" 
	d="
M362.981964,238.959579 
	C364.712189,239.278366 366.441956,239.872406 368.172699,239.875229 
	C401.167389,239.928940 434.162231,239.909302 467.157013,239.921707 
	C468.945984,239.922379 470.734863,240.070114 472.980225,240.169647 
	C472.980225,251.749252 472.980225,263.010223 472.980225,274.695648 
	C474.832489,274.866852 476.255280,275.113556 477.678070,275.113586 
	C712.141113,275.121490 946.604187,275.111694 1181.533691,275.051270 
	C1182.000000,277.700012 1182.000000,280.400024 1182.000000,283.550018 
	C1179.843262,284.093384 1177.686523,284.268463 1175.529785,284.268585 
	C944.448730,284.280426 713.367615,284.278961 482.286560,284.280457 
	C479.621002,284.280487 476.955414,284.309052 473.351501,284.204285 
	C420.462982,284.058960 368.512878,284.033173 316.562744,284.008820 
	C309.013214,284.005280 309.010834,284.008514 309.010498,276.238464 
	C309.006561,184.492310 309.003387,92.746155 309.000000,1.000000 
	C326.354218,1.000000 343.708466,1.000000 361.532898,1.468655 
	C362.006134,79.048683 362.002197,156.160049 362.052673,233.271393 
	C362.053925,235.167664 362.658691,237.063522 362.981964,238.959579 
z"/>
<path fill="#E96D4B" opacity="1.000000" stroke="none" 
	d="
M1182.000000,219.545898 
	C1180.006836,219.920410 1178.013550,219.771469 1176.020386,219.771255 
	C1089.527222,219.762299 1003.033997,219.753052 916.540771,219.785736 
	C905.378174,219.789948 894.216064,220.072662 883.053162,220.135117 
	C847.709534,220.332855 829.284241,199.616348 819.836487,173.709000 
	C811.827087,151.745895 810.859619,128.771576 811.509949,105.714767 
	C812.000000,88.341881 814.161926,71.217178 820.705994,54.876316 
	C831.506653,27.906717 851.711121,14.139599 880.320923,12.173559 
	C891.695984,11.391883 902.925537,12.416733 913.886230,15.831641 
	C937.311157,23.129906 950.145020,40.325657 956.879028,62.700348 
	C964.221436,87.096886 965.057800,112.207489 963.235474,137.435898 
	C962.685364,145.051727 961.812500,152.702805 960.303345,160.179474 
	C956.292297,180.052017 947.516541,197.216263 929.726013,209.739227 
	C931.404297,210.022324 932.258911,210.292679 933.113525,210.292694 
	C1015.772766,210.294403 1098.432007,210.275574 1181.545654,210.129028 
	C1182.000000,213.030594 1182.000000,216.061188 1182.000000,219.545898 
M854.898804,81.475403 
	C854.274780,99.595284 852.808228,117.740135 853.344055,135.825653 
	C853.663452,146.602966 855.838501,157.746429 859.460205,167.912704 
	C865.989441,186.240295 887.412537,193.001907 904.169189,183.088196 
	C915.170288,176.579575 920.006714,166.001709 920.822083,153.938797 
	C922.055298,135.692856 923.093994,117.355629 922.604248,99.100426 
	C922.305725,87.971390 920.502563,76.370712 916.709595,65.952339 
	C908.407410,43.147972 880.942383,38.088654 864.873840,55.572380 
	C858.420837,62.593655 855.480164,71.131821 854.898804,81.475403 
z"/>
<path fill="#E96B49" opacity="1.000000" stroke="none" 
	d="
M1182.000000,193.550018 
	C1181.176758,194.095291 1180.354126,194.266693 1179.530029,194.274780 
	C1153.725464,194.528671 1127.919678,194.698380 1102.117065,195.080368 
	C1098.228149,195.137939 1095.863159,194.079163 1093.692993,190.614731 
	C1071.239014,154.769287 1048.582642,119.050758 1025.976318,83.300842 
	C1025.012329,81.776375 1023.988098,80.289902 1022.023682,78.951447 
	C1022.766052,117.413658 1023.508423,155.875870 1024.257324,194.678497 
	C1010.350342,194.678497 996.948975,194.678497 983.189575,194.678497 
	C983.189575,134.831482 983.189575,75.146187 983.189575,14.874786 
	C992.382141,14.874786 1001.331787,14.874847 1010.281433,14.874755 
	C1014.113586,14.874716 1018.003967,15.295949 1021.764465,14.776747 
	C1027.613403,13.969201 1030.558350,16.648941 1033.452271,21.441797 
	C1053.937378,55.367191 1074.723267,89.111015 1095.430908,122.901886 
	C1096.169800,124.107567 1097.093872,125.199760 1098.819824,127.558723 
	C1098.819824,89.229134 1098.819824,52.375282 1098.819824,15.193468 
	C1112.973145,15.193468 1126.567017,15.193468 1140.765381,15.193468 
	C1140.765381,71.522278 1140.765381,127.894402 1140.765381,185.112335 
	C1154.589355,185.112335 1167.828857,185.112335 1181.534180,185.056168 
	C1182.000000,187.700012 1182.000000,190.400024 1182.000000,193.550018 
z"/>
<path fill="#EA6A48" opacity="1.000000" stroke="none" 
	d="
M562.710815,49.036449 
	C562.774963,49.863373 562.895386,50.690304 562.895264,51.517223 
	C562.887512,115.027710 562.870239,178.538208 562.458679,242.594330 
	C562.276184,244.437424 562.488708,245.734879 562.701172,247.032333 
	C562.752869,248.406281 562.804626,249.780243 562.506958,251.614166 
	C562.327087,252.729034 562.496704,253.383896 562.666260,254.038773 
	C562.738708,254.190659 562.811218,254.342545 562.994385,255.077240 
	C564.407715,255.563080 565.710327,255.466110 567.012939,255.369141 
	C568.077271,255.305771 569.141602,255.242386 570.729736,255.636261 
	C572.483154,256.395569 573.712646,256.960938 574.942505,256.961853 
	C633.902588,257.004822 692.862610,257.010254 751.822632,256.930908 
	C753.220276,256.929016 754.616638,255.916214 756.013611,255.374954 
	C757.399841,255.313217 758.786072,255.251480 760.714233,255.642639 
	C763.318604,256.397003 765.380981,256.961731 767.443420,256.962341 
	C905.628967,257.003876 1043.814453,256.999969 1182.000000,257.000000 
	C1182.000000,258.714355 1182.000000,260.428711 1181.531372,262.570709 
	C972.536987,263.331024 764.011230,263.664459 555.485474,263.994080 
	C544.657288,264.011200 533.825317,263.837616 523.003113,264.092072 
	C519.785339,264.167725 517.370178,263.468994 515.452332,260.968018 
	C515.393982,260.534058 515.335693,260.100098 515.713867,259.199585 
	C516.430237,257.157288 516.954163,255.581665 516.955139,254.005737 
	C516.996216,186.228149 516.994202,118.450554 516.985229,50.672958 
	C516.984497,44.871670 516.136475,44.026585 510.322571,44.018692 
	C494.668793,43.997437 479.013458,43.892056 463.362213,44.091930 
	C459.379730,44.142792 457.740662,43.256596 457.905121,38.903492 
	C458.231781,30.256306 458.215057,21.580593 457.913574,12.931540 
	C457.753479,8.337917 459.255280,6.861913 463.896240,6.908058 
	C485.209961,7.119983 506.526917,7.004752 527.842712,7.005817 
	C556.319275,7.007241 584.795898,6.996369 613.272461,7.017124 
	C619.659607,7.021779 619.992188,7.403843 619.998718,13.854520 
	C620.006042,21.181820 619.998779,28.509132 620.000610,35.836441 
	C620.002869,44.873756 619.759766,45.107845 610.449524,44.991657 
	C609.783508,44.983345 609.117371,44.981400 608.451416,44.969307 
	C594.086487,44.708511 579.721741,44.430195 565.355713,44.261944 
	C564.908630,44.256702 564.448242,45.388676 563.994080,45.990482 
	C563.725586,46.207466 563.457092,46.424446 562.726807,46.856628 
	C562.413574,47.726700 562.562195,48.381577 562.710815,49.036449 
z"/>
<path fill="#25201E" opacity="1.000000" stroke="none" 
	d="
M424.464661,434.000000 
	C415.896118,429.100861 414.635925,426.149567 417.523895,418.195007 
	C421.201599,418.533783 424.992004,418.785797 428.747162,419.296631 
	C429.694550,419.425537 430.770294,420.198120 431.374512,420.989777 
	C434.069916,424.521301 438.158691,424.692200 440.498291,420.674896 
	C442.695648,416.901825 443.980499,412.597351 445.992035,407.741760 
	C442.126495,409.635559 439.481537,411.379639 436.575043,412.271057 
	C427.930756,414.922272 421.929474,410.342194 422.289886,401.325806 
	C422.434601,397.705627 422.993561,393.954346 424.192505,390.554932 
	C426.613556,383.690247 429.207947,376.823181 432.527039,370.366333 
	C434.106445,367.293793 437.180420,364.657379 440.153992,362.698914 
	C447.617706,357.783234 453.585022,359.253662 458.725250,366.657349 
	C461.651001,360.342743 461.651001,360.342743 472.613617,361.481232 
	C468.977020,373.441772 465.397247,385.340363 461.734741,397.213440 
	C459.580841,404.195953 457.503296,411.213257 455.014679,418.078369 
	C452.144989,425.994598 447.297821,432.030182 438.126648,433.641663 
	C433.643097,434.000000 429.286194,434.000000 424.464661,434.000000 
M449.760590,393.097290 
	C451.200439,387.662628 453.199371,382.300385 453.915741,376.771973 
	C454.572784,371.701447 450.463470,369.589844 446.072388,372.300110 
	C444.713684,373.138733 443.125305,374.371674 442.661163,375.763824 
	C440.362244,382.659515 438.037262,389.587921 436.474640,396.670990 
	C435.639221,400.457977 439.070526,402.965668 442.440216,401.032654 
	C445.230164,399.432251 447.109314,396.244080 449.760590,393.097290 
z"/>
<path fill="#DD765A" opacity="1.000000" stroke="none" 
	d="
M515.332275,261.377991 
	C517.370178,263.468994 519.785339,264.167725 523.003113,264.092072 
	C533.825317,263.837616 544.657288,264.011200 555.485474,263.994080 
	C764.011230,263.664459 972.536987,263.331024 1181.531372,262.999176 
	C1182.000000,263.444458 1182.000000,263.888885 1182.000000,264.666687 
	C1180.014893,264.880859 1178.029785,264.657471 1176.044678,264.657318 
	C973.913025,264.640381 771.781311,264.630981 569.649658,264.656555 
	C552.992859,264.658661 536.336182,264.917938 519.679199,265.023438 
	C517.471985,265.037445 514.590027,265.772919 515.332275,261.377991 
z"/>
<path fill="#E77251" opacity="1.000000" stroke="none" 
	d="
M1182.000000,256.666687 
	C1043.814453,256.999969 905.628967,257.003876 767.443420,256.962341 
	C765.380981,256.961731 763.318604,256.397003 761.122070,255.735474 
	C763.143433,255.280487 765.298950,255.102753 767.454529,255.102493 
	C905.324890,255.086014 1043.195312,255.083954 1181.532837,255.040298 
	C1182.000000,255.444443 1182.000000,255.888901 1182.000000,256.666687 
z"/>
<path fill="#D27960" opacity="1.000000" stroke="none" 
	d="
M308.750000,1.000000 
	C309.003387,92.746155 309.006561,184.492310 309.010498,276.238464 
	C309.010834,284.008514 309.013214,284.005280 316.562744,284.008820 
	C368.512878,284.033173 420.462982,284.058960 472.911194,284.148193 
	C471.992310,284.495087 470.575531,285.024445 469.158325,285.025543 
	C416.879974,285.065887 364.601593,285.059052 312.323212,285.044922 
	C311.030090,285.044586 309.737000,284.889282 307.952118,284.774658 
	C307.952118,190.300552 307.952118,96.118439 307.976074,1.468168 
	C308.000000,1.000000 308.500000,1.000000 308.750000,1.000000 
z"/>
<path fill="#D27960" opacity="1.000000" stroke="none" 
	d="
M363.045715,238.498688 
	C362.658691,237.063522 362.053925,235.167664 362.052673,233.271393 
	C362.002197,156.160049 362.006134,79.048683 362.001587,1.468655 
	C362.000000,1.000000 362.500000,1.000000 362.750000,1.000000 
	C363.043518,20.460979 363.120819,39.921951 363.124207,59.382938 
	C363.134552,118.934555 363.116486,178.486160 363.045715,238.498688 
z"/>
<path fill="#25201E" opacity="1.000000" stroke="none" 
	d="
M543.909546,407.025452 
	C540.805664,416.203979 533.627441,412.089264 527.552673,413.097595 
	C528.809143,402.471375 529.994995,392.442780 531.180786,382.414215 
	C530.892090,382.309906 530.603394,382.205597 530.314697,382.101288 
	C526.393982,389.887329 521.901306,397.449188 518.734192,405.530518 
	C516.217590,411.951904 512.408630,414.132660 506.010498,413.035248 
	C504.892761,412.843536 503.713867,413.008057 501.811340,413.008057 
	C502.628479,395.758911 503.434631,378.741699 504.255310,361.417419 
	C508.413269,361.417419 512.312805,361.417419 516.768555,361.417419 
	C515.600830,371.977112 514.448425,382.397583 513.296082,392.818054 
	C513.574768,392.981842 513.853455,393.145630 514.132080,393.309448 
	C515.053833,391.966064 516.146606,390.708221 516.868713,389.264954 
	C520.663940,381.680115 524.576660,374.142029 528.012512,366.394318 
	C529.789185,362.387970 531.975098,360.232208 536.580627,361.030151 
	C538.644165,361.387665 540.821106,361.090637 543.515015,361.090637 
	C542.069275,372.385010 540.700256,383.079437 539.331299,393.773895 
	C539.606506,393.891296 539.881653,394.008698 540.156860,394.126099 
	C540.981323,392.834900 541.915771,391.600098 542.612122,390.243164 
	C546.786133,382.109528 551.099182,374.037994 554.954773,365.754395 
	C556.678711,362.050598 558.896057,360.484070 562.919128,361.052002 
	C564.984802,361.343597 567.125549,361.103180 570.095642,361.103180 
	C561.173218,376.744293 552.630249,391.720184 543.909546,407.025452 
z"/>
<path fill="#241F1D" opacity="1.000000" stroke="none" 
	d="
M709.124268,403.240875 
	C706.065430,413.136963 706.065369,413.141510 696.101990,413.001617 
	C695.117737,412.987823 694.134827,412.876160 692.706848,412.780029 
	C696.259216,401.139740 699.722473,389.716644 703.233398,378.308167 
	C706.653870,367.193634 710.202881,356.117798 713.512634,344.970703 
	C714.303711,342.306335 715.403137,341.203217 718.343201,341.347900 
	C725.992310,341.724243 733.674744,341.493011 741.314575,341.972107 
	C750.237671,342.531677 753.990784,347.283325 753.218201,356.238312 
	C751.710449,373.715210 739.615173,385.255005 722.080627,385.903168 
	C719.609253,385.994537 717.131470,385.915833 714.567139,385.915833 
	C712.707397,391.807037 710.964355,397.328583 709.124268,403.240875 
M723.292725,374.040802 
	C729.181824,373.962616 733.917053,371.945892 736.647705,366.332520 
	C740.908081,357.574402 738.177063,353.029633 728.506287,353.125793 
	C727.055054,353.140198 724.626648,353.626526 724.322571,354.486115 
	C722.096375,360.779755 720.296936,367.224274 718.225525,374.075317 
	C720.101929,374.075317 721.244324,374.075317 723.292725,374.040802 
z"/>
<path fill="#25201E" opacity="1.000000" stroke="none" 
	d="
M194.532227,358.643066 
	C190.584030,370.252655 186.539688,381.483978 183.400101,392.962799 
	C182.728668,395.417694 184.638351,400.465363 186.614243,401.282257 
	C189.112030,402.314880 193.711746,401.189697 195.933807,399.281921 
	C199.329208,396.366699 201.465805,391.985291 204.473206,387.752930 
	C207.667862,388.881378 211.361557,390.186127 215.031693,391.482513 
	C211.276993,406.173248 195.943634,416.306244 181.499634,413.891113 
	C175.081009,412.817902 170.944382,409.123810 169.978287,402.526947 
	C169.386337,398.484955 168.962799,394.003662 170.090714,390.202423 
	C173.429077,378.951691 176.587585,367.463531 181.660614,356.958832 
	C187.761398,344.326019 200.868439,338.464935 213.131668,340.675720 
	C222.038452,342.281464 227.396149,350.847687 224.610779,359.386230 
	C224.269028,360.433929 222.615677,361.425201 221.389053,361.742432 
	C217.857330,362.655914 214.232819,363.210754 210.308044,363.971741 
	C210.308044,362.386627 210.312119,360.956604 210.307358,359.526581 
	C210.284210,352.590851 205.705933,349.912598 199.742935,353.569946 
	C197.825256,354.746155 196.406448,356.735748 194.532227,358.643066 
z"/>
<path fill="#25201D" opacity="1.000000" stroke="none" 
	d="
M642.827820,375.928467 
	C639.091553,386.237823 635.546814,396.228912 632.030701,406.230011 
	C631.263062,408.413330 630.597961,410.632660 629.891174,412.818481 
	C625.569458,412.818481 621.453674,412.818481 616.982910,412.818481 
	C624.083069,389.710236 631.070068,366.873474 638.195740,344.080170 
	C638.533875,342.998657 640.040222,341.648804 641.109802,341.546600 
	C644.517395,341.221008 647.975647,341.425995 651.936646,341.425995 
	C649.455444,349.617798 647.168030,357.169739 644.773682,365.074890 
	C648.358521,363.418060 651.389526,361.491791 654.699707,360.588043 
	C663.786743,358.107178 669.234802,362.701782 667.026428,371.781677 
	C663.660034,385.622833 659.212830,399.201141 655.231995,412.865295 
	C650.611755,412.865295 646.480713,412.865295 641.929504,412.865295 
	C645.090942,402.494354 648.174255,392.373505 651.263184,382.254425 
	C651.699280,380.825958 652.456238,379.423920 652.545044,377.977753 
	C652.679382,375.790314 652.356995,373.574890 652.228699,371.371338 
	C649.804810,372.022522 647.331360,372.538330 644.984253,373.398895 
	C644.171265,373.696960 643.672119,374.850800 642.827820,375.928467 
z"/>
<path fill="#25201E" opacity="1.000000" stroke="none" 
	d="
M764.886780,363.750366 
	C772.286682,359.827606 779.751465,358.948425 787.462341,360.963745 
	C793.582947,362.563446 795.783997,365.993164 794.245056,372.104401 
	C792.421265,379.346924 789.921570,386.417358 788.018738,393.642426 
	C786.389343,399.829193 785.188599,406.128876 783.708618,412.781494 
	C780.569275,412.781494 776.636292,412.781494 772.337646,412.781494 
	C772.156982,411.545410 771.979553,410.331360 771.782410,408.982117 
	C771.108093,409.202057 770.583252,409.244995 770.222107,409.510620 
	C765.619080,412.895508 760.504944,414.547974 754.781860,414.023529 
	C747.930542,413.395691 744.141907,408.177704 745.598022,401.438354 
	C747.356323,393.300720 752.099670,387.626892 760.002686,385.010468 
	C765.355347,383.238373 770.866516,381.899109 776.369995,380.643616 
	C780.424622,379.718628 781.359131,376.898407 780.738281,373.581879 
	C780.017334,369.730652 776.774475,370.215973 773.940063,370.716003 
	C772.675720,370.939056 770.898560,371.247498 770.362915,372.129700 
	C766.450439,378.573334 761.244995,376.044128 754.688660,374.041779 
	C758.297363,370.356964 761.436279,367.151855 764.886780,363.750366 
M774.169983,388.845917 
	C770.441956,390.205261 766.537354,391.219788 763.032776,393.015320 
	C759.074829,395.043152 757.317200,400.235229 759.546448,402.627686 
	C762.435486,405.728333 765.973511,404.859100 769.076721,402.879578 
	C774.113403,399.666809 775.355286,394.177826 776.851624,388.904999 
	C776.195312,388.790497 775.539062,388.675995 774.169983,388.845917 
z"/>
<path fill="#25201E" opacity="1.000000" stroke="none" 
	d="
M240.920227,362.744904 
	C247.730118,359.784241 254.412857,359.146210 261.235809,360.890045 
	C267.626892,362.523499 269.908783,365.954407 268.256836,372.267670 
	C265.990845,380.927795 263.099854,389.423676 260.798584,398.075531 
	C259.575562,402.673676 259.031372,407.452393 258.091278,412.643860 
	C254.827499,412.643860 250.773727,412.643860 246.331329,412.643860 
	C246.183533,411.547333 246.020203,410.335480 245.836899,408.975525 
	C245.155197,409.201904 244.708618,409.359924 244.256180,409.498901 
	C239.288712,411.024811 234.381195,413.522064 229.337540,413.837280 
	C222.225128,414.281738 218.228470,408.466827 219.669815,401.482880 
	C221.398285,393.107544 226.359863,387.487579 234.455475,384.884033 
	C239.341187,383.312836 244.388031,382.244019 249.358826,380.935547 
	C251.953461,380.252594 254.743042,379.567749 254.730713,376.180237 
	C254.724670,374.516541 254.178650,371.577118 253.428635,371.425018 
	C250.814407,370.894653 248.003738,371.313263 245.269760,371.421692 
	C244.992035,371.432709 244.619125,371.723755 244.473160,371.986450 
	C240.814453,378.570801 235.430939,375.824005 229.687119,374.487793 
	C232.009964,369.198700 235.574081,365.430359 240.920227,362.744904 
M244.419678,402.015472 
	C246.867828,397.685028 249.315979,393.354614 251.955566,388.685547 
	C250.352722,388.361877 250.023972,388.182587 249.783218,388.263916 
	C246.326996,389.431030 242.853973,390.557281 239.442062,391.844635 
	C234.247574,393.804565 231.424423,398.535217 233.199203,402.098206 
	C234.656189,405.023254 238.729065,405.168762 244.419678,402.015472 
z"/>
<path fill="#25201E" opacity="1.000000" stroke="none" 
	d="
M384.954071,404.019470 
	C383.936707,407.226105 383.001038,410.041046 382.054596,412.888458 
	C377.811554,412.888458 373.841278,412.888458 369.219330,412.888458 
	C374.536957,395.586090 379.768219,378.564758 385.058228,361.352295 
	C388.958557,361.352295 392.722595,361.352295 396.776398,361.352295 
	C396.483429,363.056854 396.190369,364.761932 395.923462,366.315002 
	C399.535522,364.409271 402.905640,361.973480 406.669708,360.774536 
	C416.138885,357.758392 421.780701,362.776550 419.298279,372.352142 
	C415.970123,385.189911 411.864258,397.828674 407.921936,410.499878 
	C407.597717,411.541931 406.025146,412.792542 404.938049,412.889862 
	C401.500305,413.197662 398.017639,413.003448 394.188538,413.003448 
	C397.662201,401.609467 401.101227,390.693542 404.263580,379.698059 
	C405.047729,376.971619 407.902679,373.172241 403.828766,371.383270 
	C399.926361,369.669708 396.516876,372.585419 395.031616,376.081665 
	C391.863922,383.538330 389.296722,391.250946 386.516693,398.870819 
	C385.948181,400.429169 385.525604,402.040741 384.954071,404.019470 
z"/>
<path fill="#241F1D" opacity="1.000000" stroke="none" 
	d="
M996.440735,381.307953 
	C996.985291,379.660065 997.631470,378.391022 997.665710,377.105682 
	C997.715576,375.233398 997.325012,373.349365 997.122192,371.470337 
	C994.939575,371.826569 991.887207,371.410858 990.748718,372.693726 
	C988.070190,375.711914 985.667908,379.309387 984.295044,383.087219 
	C980.738098,392.874542 977.797607,402.885803 974.587830,412.879578 
	C970.429382,412.879578 966.458313,412.879578 961.838623,412.879578 
	C963.645447,406.859100 965.351135,401.081940 967.114014,395.322296 
	C970.077698,385.639160 973.303223,376.028381 975.955688,366.261444 
	C977.073914,362.143890 978.913635,360.425537 983.140076,361.054169 
	C985.076782,361.342194 987.091797,361.103149 989.242859,361.103149 
	C989.029358,362.942841 988.859619,364.405243 988.606018,366.590057 
	C990.304749,365.438507 991.488220,364.352997 992.880615,363.749695 
	C996.033630,362.383575 999.206665,360.574341 1002.520813,360.170959 
	C1009.521973,359.318817 1012.885986,362.797791 1012.136658,369.850891 
	C1011.720154,373.771698 1010.583740,377.651520 1009.449585,381.453674 
	C1006.460022,391.475098 1003.296570,401.444702 1000.192749,411.431915 
	C1000.050110,411.890869 999.814514,412.320923 999.590149,412.838562 
	C995.449768,412.838562 991.325623,412.838562 986.792969,412.838562 
	C990.007080,402.269897 993.137939,391.974701 996.440735,381.307953 
z"/>
<path fill="#231E1C" opacity="1.000000" stroke="none" 
	d="
M943.476135,360.241455 
	C956.968994,359.491058 962.829041,365.527496 961.120483,378.509155 
	C959.729614,389.077454 955.987183,398.759247 948.238892,406.449982 
	C943.066223,411.584167 936.825378,414.275299 929.430664,414.097992 
	C920.640442,413.887207 915.372925,409.436890 915.588501,400.632477 
	C915.929871,386.694153 920.450012,374.135345 931.803772,365.208649 
	C934.917419,362.760651 939.264587,361.881531 943.476135,360.241455 
M943.888733,393.241364 
	C945.230469,388.644379 946.839233,384.103058 947.813354,379.429443 
	C948.392883,376.649475 949.060730,372.519165 945.130554,372.055664 
	C942.377319,371.731018 937.652588,373.128784 936.714661,375.123688 
	C933.460754,382.044830 930.825806,389.424530 929.236816,396.902100 
	C928.173523,401.905670 933.115845,404.550415 937.382446,401.473694 
	C939.931946,399.635162 941.533752,396.482605 943.888733,393.241364 
z"/>
<path fill="#241F1D" opacity="1.000000" stroke="none" 
	d="
M840.033813,398.849457 
	C844.215149,397.889709 848.139587,397.247253 852.265015,396.571930 
	C852.805359,398.368958 852.830688,400.340118 853.828979,401.314850 
	C855.198792,402.652374 857.436218,404.140869 859.063965,403.907288 
	C861.030212,403.625153 863.314636,401.946198 864.346619,400.209412 
	C864.907898,399.264832 863.585327,396.496490 862.364685,395.340057 
	C859.601807,392.722626 856.242432,390.746460 853.367188,388.233185 
	C848.663635,384.121918 847.709290,379.756531 849.841003,373.842285 
	C853.786743,362.895203 867.026367,356.876648 877.738281,361.160492 
	C882.417419,363.031738 884.134277,366.417206 883.696472,373.460358 
	C879.773132,374.073608 875.741333,374.703796 871.943970,375.297333 
	C870.732727,373.377380 869.994934,370.801147 868.630432,370.409668 
	C867.011841,369.945374 864.137817,370.819702 863.145935,372.128174 
	C862.285217,373.263794 862.559998,376.546143 863.613037,377.597412 
	C866.405823,380.385284 869.949524,382.404877 873.088074,384.865814 
	C878.684448,389.253937 879.781433,393.605316 877.137024,400.246552 
	C872.473145,411.960022 857.115967,417.995331 845.734680,412.587646 
	C840.775513,410.231384 838.936340,406.088165 840.033813,398.849457 
z"/>
<path fill="#25201E" opacity="1.000000" stroke="none" 
	d="
M304.783630,403.665833 
	C298.326752,413.541992 288.939575,415.196655 278.666443,413.700745 
	C271.098206,412.598694 268.253754,407.762634 269.183105,398.514160 
	C273.105103,397.909363 277.149750,397.285645 281.444061,396.623444 
	C282.000916,398.321930 282.085022,400.258179 283.095795,401.250549 
	C284.463135,402.593018 286.664062,404.123260 288.283905,403.906128 
	C290.254852,403.641907 292.564606,401.988647 293.606079,400.260315 
	C294.177979,399.311218 292.882294,396.508240 291.660828,395.352814 
	C288.776703,392.624695 285.329803,390.503235 282.300262,387.914337 
	C278.197021,384.407837 277.241943,379.968597 278.803864,374.812988 
	C282.258942,363.408569 295.921539,356.740936 307.002014,361.140686 
	C311.989685,363.121185 313.753937,366.948730 312.556000,373.609589 
	C308.742310,374.164825 304.831909,374.734131 301.153107,375.269745 
	C299.984100,373.365021 299.268463,370.762573 297.934479,370.393219 
	C296.307648,369.942688 293.635742,370.870239 292.418182,372.153076 
	C291.560211,373.057037 291.668365,376.169586 292.581757,377.200714 
	C294.635651,379.519409 297.400452,381.239380 299.979156,383.056580 
	C308.793854,389.268250 309.862823,393.510376 304.783630,403.665833 
z"/>
<path fill="#24201D" opacity="1.000000" stroke="none" 
	d="
M839.067261,369.299072 
	C839.616943,372.593140 838.673889,374.027222 835.498901,374.128510 
	C832.553711,374.222504 829.626648,374.885620 827.465637,375.189331 
	C825.783936,373.068756 824.749451,370.524200 823.240967,370.202515 
	C821.655823,369.864532 819.160034,371.261108 817.949768,372.664917 
	C817.238342,373.489990 817.662659,376.414368 818.607849,377.332825 
	C821.207703,379.859100 824.344971,381.834442 827.281677,384.011414 
	C834.354126,389.254150 835.560974,394.367340 831.556213,402.185394 
	C826.307190,412.432526 811.255127,417.522888 800.880066,412.559570 
	C795.754395,410.107513 793.932373,405.485718 795.475220,398.411713 
	C799.292542,397.847321 803.214294,397.267517 807.367554,396.653442 
	C807.980591,398.418152 808.114746,400.553070 809.251343,401.626801 
	C810.623535,402.923035 812.951965,404.116302 814.670959,403.887207 
	C816.487366,403.645203 818.749512,401.996979 819.528564,400.352600 
	C820.069031,399.211731 818.876770,396.569244 817.673279,395.420380 
	C814.924011,392.795898 811.542603,390.845490 808.690247,388.314453 
	C803.735596,383.917999 802.790161,379.081360 805.315063,373.001221 
	C809.502869,362.916504 821.967529,357.383911 832.380737,360.985840 
	C836.167725,362.295746 838.552673,364.784790 839.067261,369.299072 
z"/>
<path fill="#24201D" opacity="1.000000" stroke="none" 
	d="
M616.487427,346.603943 
	C618.409668,345.676025 620.010803,344.938171 622.341797,343.863983 
	C621.389099,347.222473 620.657166,349.888550 619.873962,352.539490 
	C619.076965,355.237366 618.229370,357.920319 617.256958,361.088501 
	C619.837463,361.321564 622.071167,361.523315 624.923584,361.780945 
	C623.905396,365.144653 622.923645,368.388245 621.778198,372.172272 
	C614.164368,369.587646 612.542175,374.612579 611.149109,380.367554 
	C609.900330,385.526245 608.112976,390.553558 606.596436,395.648712 
	C604.384338,403.080261 604.396973,403.084015 611.840210,403.372192 
	C611.055542,412.702881 604.351318,416.883026 595.558044,413.524200 
	C591.378418,411.927704 589.920776,408.659149 591.460815,403.204193 
	C593.670105,395.379089 596.154236,387.631622 598.519043,379.850403 
	C599.242493,377.469757 599.959229,375.087036 600.778259,372.377167 
	C599.515320,372.127319 598.337769,371.894379 596.914246,371.612793 
	C597.691528,368.891052 598.386292,366.363861 599.148193,363.857117 
	C599.336914,363.236298 599.707092,362.195282 600.055481,362.169128 
	C606.032104,361.721252 604.639648,355.888580 607.067566,352.989502 
	C609.334412,350.282745 613.074585,348.809937 616.487427,346.603943 
z"/>
<path fill="#24201D" opacity="1.000000" stroke="none" 
	d="
M331.585815,392.735504 
	C331.157837,394.074829 330.899017,395.036224 330.622711,395.992645 
	C328.603058,402.984161 328.704468,403.127930 336.822266,403.390106 
	C335.491882,406.725067 334.935059,411.749390 332.917511,412.427460 
	C328.644257,413.863647 323.422516,413.876556 318.940460,412.886108 
	C314.739624,411.957794 314.279022,407.704071 315.434265,403.802338 
	C318.493744,393.468994 321.634827,383.159821 324.855286,372.469727 
	C323.682648,372.193054 322.529480,371.920959 321.069122,371.576385 
	C321.764313,369.154083 322.392059,366.805023 323.125641,364.489532 
	C323.422180,363.553650 323.969086,361.903931 324.369812,361.913574 
	C330.099213,362.051941 329.008148,356.961395 330.721283,354.002899 
	C331.638672,352.418640 332.827209,350.702759 334.343262,349.811707 
	C337.895081,347.724152 341.718018,346.097870 346.460693,343.782135 
	C344.665588,350.027161 343.141663,355.328766 341.479828,361.110168 
	C344.040344,361.337646 346.271576,361.535889 349.050293,361.782745 
	C348.023651,365.161926 347.033722,368.420319 346.112061,371.453888 
	C345.669128,371.681152 345.529816,371.815186 345.390411,371.815247 
	C330.542908,371.824005 336.810394,385.854248 331.585815,392.735504 
z"/>
<path fill="#25201E" opacity="1.000000" stroke="none" 
	d="
M576.000671,410.190308 
	C574.871521,411.399414 573.887146,412.802063 572.787842,412.898804 
	C569.352783,413.200958 565.874329,413.009735 562.016357,413.009735 
	C567.145203,396.284241 572.092651,379.977966 577.240723,363.735260 
	C577.595764,362.614990 579.379639,361.353149 580.613037,361.220886 
	C583.886841,360.869904 587.223145,361.101746 591.116516,361.101746 
	C586.026306,377.596649 581.059570,393.691498 576.000671,410.190308 
z"/>
<path fill="#25201E" opacity="1.000000" stroke="none" 
	d="
M912.378296,366.484009 
	C907.524475,382.216370 902.818420,397.573212 898.140564,412.837952 
	C893.597900,412.837952 889.474121,412.837952 885.010193,412.837952 
	C890.089600,396.288391 895.042725,379.978607 900.196838,363.732635 
	C900.552551,362.611420 902.341797,361.350861 903.578369,361.218323 
	C906.855347,360.867096 910.194824,361.099213 913.889099,361.099213 
	C913.375488,362.986664 912.950745,364.547607 912.378296,366.484009 
z"/>
<path fill="#24201D" opacity="1.000000" stroke="none" 
	d="
M347.098541,413.005890 
	C345.482483,413.005829 344.331635,413.005829 342.395172,413.005829 
	C347.760956,395.535065 352.987915,378.516388 358.268890,361.321777 
	C362.484222,361.321777 366.592804,361.321777 371.380188,361.321777 
	C366.078888,378.583832 360.852081,395.603363 355.507599,413.005951 
	C352.828003,413.005951 350.195862,413.005951 347.098541,413.005890 
z"/>
<path fill="#292422" opacity="1.000000" stroke="none" 
	d="
M174.171814,352.213684 
	C172.794968,355.285583 171.541382,357.991699 170.236282,360.672729 
	C166.810883,367.709320 166.801926,367.704956 157.648788,366.343689 
	C159.264984,359.085907 160.924515,351.898407 162.441284,344.680908 
	C162.984253,342.097198 164.325668,341.178284 166.928375,341.331787 
	C170.195862,341.524506 173.483322,341.378204 177.476196,341.378204 
	C176.273544,345.303070 175.272552,348.569794 174.171814,352.213684 
z"/>
<path fill="#292422" opacity="1.000000" stroke="none" 
	d="
M1057.902466,346.861053 
	C1055.966431,351.687775 1054.273560,356.186890 1052.247681,360.530823 
	C1048.971924,367.554840 1048.879517,367.511749 1039.530518,366.472504 
	C1041.287109,358.876099 1042.907349,351.365295 1044.869751,343.944977 
	C1045.152832,342.874146 1047.022705,341.635406 1048.258667,341.516235 
	C1051.699707,341.184509 1055.193604,341.401031 1059.200684,341.401031 
	C1058.732544,343.368408 1058.364380,344.916107 1057.902466,346.861053 
z"/>
<path fill="#292422" opacity="1.000000" stroke="none" 
	d="
M1032.454102,341.407593 
	C1035.998779,341.404968 1039.105957,341.404968 1043.739136,341.404968 
	C1039.968872,350.032623 1037.043091,357.907593 1033.001221,365.160522 
	C1031.970459,367.010010 1027.401001,366.887360 1024.457397,367.670837 
	C1023.962646,367.268707 1023.467957,366.866547 1022.973206,366.464417 
	C1024.703125,358.828552 1026.317993,351.162506 1028.303711,343.593811 
	C1028.562134,342.609039 1030.732056,342.125793 1032.454102,341.407593 
z"/>
<path fill="#292422" opacity="1.000000" stroke="none" 
	d="
M142.313980,360.143311 
	C142.612000,357.916748 142.812332,356.101318 143.104874,354.300903 
	C145.144669,341.746948 147.390259,340.108368 161.511673,341.986359 
	C157.968842,350.100281 154.954086,358.094635 150.881546,365.507935 
	C149.950882,367.202057 145.371017,366.891510 141.660797,367.674500 
	C141.911163,364.697052 142.085052,362.629211 142.313980,360.143311 
z"/>
<path fill="#2F2A28" opacity="1.000000" stroke="none" 
	d="
M903.650146,352.422668 
	C903.791443,351.871399 903.821350,351.707001 903.868408,351.547638 
	C907.248291,340.097961 907.248352,340.097992 919.538513,341.811157 
	C917.718079,353.984344 912.702332,357.434692 903.650146,352.422668 
z"/>
<path fill="#2F2A28" opacity="1.000000" stroke="none" 
	d="
M589.698730,353.975525 
	C586.451538,353.975891 583.646790,353.975891 580.235046,353.975891 
	C581.606445,349.493927 582.838501,345.467163 584.056824,341.485474 
	C588.435669,341.485474 592.402649,341.485474 597.043152,341.485474 
	C595.932861,345.309265 595.098511,348.934204 593.738708,352.349976 
	C593.388428,353.229706 591.385071,353.451294 589.698730,353.975525 
z"/>
<path fill="#2C2826" opacity="1.000000" stroke="none" 
	d="
M371.009064,341.370392 
	C373.238281,341.369415 375.019287,341.369415 377.494904,341.369415 
	C376.119720,345.944092 374.948486,349.840363 373.768311,353.766357 
	C369.366486,353.766357 365.252411,353.766357 360.651001,353.766357 
	C361.947327,349.515686 363.144806,345.589203 364.431122,341.371368 
	C366.597931,341.371368 368.579407,341.371368 371.009064,341.370392 
z"/>
<path fill="#DD765A" opacity="1.000000" stroke="none" 
	d="
M564.458862,46.062057 
	C564.448242,45.388676 564.908630,44.256702 565.355713,44.261944 
	C579.721741,44.430195 594.086487,44.708511 608.451416,44.969307 
	C609.117371,44.981400 609.783508,44.983345 610.449524,44.991657 
	C619.759766,45.107845 620.002869,44.873756 620.000610,35.836441 
	C619.998779,28.509132 620.006042,21.181820 619.998718,13.854520 
	C619.992188,7.403843 619.659607,7.021779 613.272461,7.017124 
	C584.795898,6.996369 556.319275,7.007241 527.842712,7.005817 
	C506.526917,7.004752 485.209961,7.119983 463.896240,6.908058 
	C459.255280,6.861913 457.753479,8.337917 457.913574,12.931540 
	C458.215057,21.580593 458.231781,30.256306 457.905121,38.903492 
	C457.740662,43.256596 459.379730,44.142792 463.362213,44.091930 
	C479.013458,43.892056 494.668793,43.997437 510.322571,44.018692 
	C516.136475,44.026585 516.984497,44.871670 516.985229,50.672958 
	C516.994202,118.450554 516.996216,186.228149 516.955139,254.005737 
	C516.954163,255.581665 516.430237,257.157288 515.799805,258.879578 
	C515.341553,256.871124 515.140137,254.716125 515.139587,252.561081 
	C515.122986,186.075378 515.125854,119.589668 515.125793,53.103966 
	C515.125793,50.985584 515.125793,48.867199 515.125793,46.320900 
	C495.575348,46.320900 476.640228,46.320900 457.230560,46.320900 
	C457.230560,32.686840 457.230560,19.491463 457.230560,5.850564 
	C511.707306,5.850564 566.096008,5.850564 620.848450,5.850564 
	C620.848450,19.330742 620.848450,32.388714 620.848450,46.133633 
	C602.112549,46.133633 583.518066,46.133633 564.458862,46.062057 
z"/>
<path fill="#E77251" opacity="1.000000" stroke="none" 
	d="
M755.555054,255.267181 
	C754.616638,255.916214 753.220276,256.929016 751.822632,256.930908 
	C692.862610,257.010254 633.902588,257.004822 574.942505,256.961853 
	C573.712646,256.960938 572.483154,256.395569 571.120361,255.732605 
	C571.810547,255.283676 572.633850,255.118515 573.457214,255.118576 
	C634.003662,255.123810 694.550049,255.142136 755.555054,255.267181 
z"/>
<path fill="#E77251" opacity="1.000000" stroke="none" 
	d="
M566.621460,255.270294 
	C565.710327,255.466110 564.407715,255.563080 563.055176,255.322235 
	C564.080139,255.046768 565.155090,255.109116 566.621460,255.270294 
z"/>
<path fill="#DD765A" opacity="1.000000" stroke="none" 
	d="
M562.799438,246.632553 
	C562.488708,245.734879 562.276184,244.437424 562.375366,243.053680 
	C562.757202,244.055847 562.827454,245.144318 562.799438,246.632553 
z"/>
<path fill="#DD765A" opacity="1.000000" stroke="none" 
	d="
M562.758301,253.697235 
	C562.496704,253.383896 562.327087,252.729034 562.419861,252.019043 
	C562.738220,252.427841 562.794250,252.891769 562.758301,253.697235 
z"/>
<path fill="#DD765A" opacity="1.000000" stroke="none" 
	d="
M562.810730,48.704437 
	C562.562195,48.381577 562.413574,47.726700 562.538452,47.034752 
	C562.844849,47.455929 562.877747,47.914177 562.810730,48.704437 
z"/>
<path fill="#FFFDFC" opacity="1.000000" stroke="none" 
	d="
M133.139130,96.192169 
	C136.291473,85.330009 139.360443,74.862679 142.429413,64.395348 
	C143.114227,64.320374 143.799042,64.245392 144.483856,64.170410 
	C156.991074,108.275650 169.498276,152.380890 182.142181,196.968109 
	C155.815750,196.968109 130.223480,196.968109 103.839020,196.968109 
	C113.664520,163.210220 123.360123,129.898605 133.139130,96.192169 
z"/>
<path fill="#FEFCFB" opacity="1.000000" stroke="none" 
	d="
M694.209167,109.010033 
	C691.267151,109.142815 689.242493,109.194588 689.268799,105.568901 
	C689.410339,86.104515 689.344604,66.638641 689.376282,47.173328 
	C689.377258,46.547142 689.656555,45.921402 690.063843,44.216385 
	C703.570801,44.888214 717.335327,44.321617 730.635986,46.538261 
	C748.934021,49.587772 754.240173,61.032604 753.408142,77.436134 
	C752.351013,98.278831 741.711487,107.563675 718.634460,108.774551 
	C710.668396,109.192551 702.667725,108.952141 694.209167,109.010033 
z"/>
<path fill="#FFFEFD" opacity="1.000000" stroke="none" 
	d="
M854.936707,81.023682 
	C855.480164,71.131821 858.420837,62.593655 864.873840,55.572380 
	C880.942383,38.088654 908.407410,43.147972 916.709595,65.952339 
	C920.502563,76.370712 922.305725,87.971390 922.604248,99.100426 
	C923.093994,117.355629 922.055298,135.692856 920.822083,153.938797 
	C920.006714,166.001709 915.170288,176.579575 904.169189,183.088196 
	C887.412537,193.001907 865.989441,186.240295 859.460205,167.912704 
	C855.838501,157.746429 853.663452,146.602966 853.344055,135.825653 
	C852.808228,117.740135 854.274780,99.595284 854.936707,81.023682 
z"/>
<path fill="#F7F7F6" opacity="1.000000" stroke="none" 
	d="
M449.576294,393.428345 
	C447.109314,396.244080 445.230164,399.432251 442.440216,401.032654 
	C439.070526,402.965668 435.639221,400.457977 436.474640,396.670990 
	C438.037262,389.587921 440.362244,382.659515 442.661163,375.763824 
	C443.125305,374.371674 444.713684,373.138733 446.072388,372.300110 
	C450.463470,369.589844 454.572784,371.701447 453.915741,376.771973 
	C453.199371,382.300385 451.200439,387.662628 449.576294,393.428345 
z"/>
<path fill="#F8F7F7" opacity="1.000000" stroke="none" 
	d="
M722.839722,374.058044 
	C721.244324,374.075317 720.101929,374.075317 718.225525,374.075317 
	C720.296936,367.224274 722.096375,360.779755 724.322571,354.486115 
	C724.626648,353.626526 727.055054,353.140198 728.506287,353.125793 
	C738.177063,353.029633 740.908081,357.574402 736.647705,366.332520 
	C733.917053,371.945892 729.181824,373.962616 722.839722,374.058044 
z"/>
<path fill="#F5F4F3" opacity="1.000000" stroke="none" 
	d="
M774.526367,388.703705 
	C775.539062,388.675995 776.195312,388.790497 776.851624,388.904999 
	C775.355286,394.177826 774.113403,399.666809 769.076721,402.879578 
	C765.973511,404.859100 762.435486,405.728333 759.546448,402.627686 
	C757.317200,400.235229 759.074829,395.043152 763.032776,393.015320 
	C766.537354,391.219788 770.441956,390.205261 774.526367,388.703705 
z"/>
<path fill="#F4F3F2" opacity="1.000000" stroke="none" 
	d="
M244.130493,402.246918 
	C238.729065,405.168762 234.656189,405.023254 233.199203,402.098206 
	C231.424423,398.535217 234.247574,393.804565 239.442062,391.844635 
	C242.853973,390.557281 246.326996,389.431030 249.783218,388.263916 
	C250.023972,388.182587 250.352722,388.361877 251.955566,388.685547 
	C249.315979,393.354614 246.867828,397.685028 244.130493,402.246918 
z"/>
<path fill="#F7F7F6" opacity="1.000000" stroke="none" 
	d="
M943.725159,393.581055 
	C941.533752,396.482605 939.931946,399.635162 937.382446,401.473694 
	C933.115845,404.550415 928.173523,401.905670 929.236816,396.902100 
	C930.825806,389.424530 933.460754,382.044830 936.714661,375.123688 
	C937.652588,373.128784 942.377319,371.731018 945.130554,372.055664 
	C949.060730,372.519165 948.392883,376.649475 947.813354,379.429443 
	C946.839233,384.103058 945.230469,388.644379 943.725159,393.581055 
z"/>
</svg>